<svg width="23" height="21" viewBox="0 0 23 21" fill="none" xmlns="http://www.w3.org/2000/svg">
<path d="M22.0042 17.9726L2.29608 18.054L2.22369 0.526075C2.22318 0.402481 2.11964 0.301784 1.9936 0.302304L0.389443 0.308929C0.263402 0.30945 0.160696 0.410998 0.161206 0.534593L0.241018 19.8603C0.241528 19.9839 0.34507 20.0846 0.47111 20.084L22.0126 19.9951C22.1386 19.9946 22.2413 19.893 22.2408 19.7694L22.2343 18.1964C22.2338 18.0728 22.1303 17.9721 22.0042 17.9726ZM5.30888 13.7073C5.39804 13.794 5.54127 13.7934 5.63257 13.7059L9.5783 9.82443L13.2484 13.416C13.3375 13.5028 13.4836 13.5022 13.5721 13.4147L21.4291 5.64905C21.5176 5.56161 21.517 5.41835 21.4278 5.33164L20.2889 4.22397C20.2456 4.18233 20.1873 4.15911 20.1267 4.15936C20.0661 4.15961 20.0081 4.18331 19.9652 4.22531L13.4033 10.7103L9.73902 7.12431C9.69578 7.08267 9.63752 7.05945 9.57691 7.0597C9.51629 7.05995 9.45823 7.08365 9.41533 7.12564L4.17146 12.2794C4.12899 12.3218 4.1053 12.3789 4.10554 12.4383C4.10579 12.4978 4.12995 12.5547 4.17277 12.5968L5.30888 13.7073Z" fill="#6C757D"/>
</svg>
