<svg width="21" height="21" viewBox="0 0 21 21" fill="none" xmlns="http://www.w3.org/2000/svg">
<path d="M18.202 10.8281L10.066 10.8617L10.0328 2.81715C10.0324 2.71828 9.95022 2.63772 9.85022 2.63813L9.25934 2.64058C8.06552 2.64357 6.88405 2.87994 5.78292 3.33609C4.68179 3.79223 3.68273 4.45915 2.84321 5.29846C2.01642 6.1202 1.35895 7.09292 0.907358 8.16256C0.437418 9.27197 0.198845 10.4638 0.205938 11.6665C0.208858 12.8469 0.447804 14.0151 0.909029 15.1038C1.37025 16.1925 2.04466 17.1803 2.89343 18.0103C3.73089 18.8315 4.70626 19.4769 5.7899 19.9241C6.91187 20.3887 8.11718 20.6244 9.33358 20.6173C10.5274 20.6143 11.7089 20.3779 12.81 19.9218C13.9111 19.4657 14.9102 18.7987 15.7497 17.9594C16.5804 17.1313 17.2332 16.1668 17.6856 15.0953C18.1555 13.9859 18.3941 12.7941 18.387 11.5914L18.3846 11.0072C18.3842 10.9083 18.302 10.8277 18.202 10.8281ZM14.6295 16.9057C13.9286 17.599 13.0963 18.1487 12.1802 18.5235C11.2641 18.8982 10.2823 19.0905 9.2909 19.0894C7.28868 19.0887 5.40374 18.3212 3.98211 16.9272C2.55135 15.5241 1.75956 13.6533 1.75133 11.6601C1.74309 9.66693 2.51941 7.78962 3.93853 6.37481C5.17432 5.14277 6.76889 4.38789 8.49311 4.20999L8.52692 12.3961L16.8061 12.362C16.6382 14.0772 15.8812 15.6691 14.6295 16.9057ZM20.1968 9.5705L20.1351 8.93706C19.9333 6.86829 18.9958 4.9194 17.4943 3.45149C15.9918 1.98087 14.0171 1.07505 11.9111 0.890344L11.2677 0.834576C11.1609 0.826029 11.0703 0.9073 11.0707 1.01291L11.1064 9.644C11.1068 9.74287 11.189 9.82343 11.2889 9.82301L20.0158 9.7645C20.1226 9.76406 20.2063 9.67383 20.1968 9.5705ZM12.6417 8.29387L12.6179 2.52783C14.0507 2.81819 15.3674 3.51379 16.4079 4.5301C17.4507 5.55049 18.1674 6.85086 18.4686 8.25408L12.6417 8.29387Z" fill="#0063F5"/>
</svg>
