<svg width="20" height="20" viewBox="0 0 20 20" fill="none" xmlns="http://www.w3.org/2000/svg">
<path d="M18.3795 16.1004C17.9009 14.9923 17.209 13.9868 16.3421 13.14C15.4779 12.2907 14.4555 11.615 13.3314 11.1501C13.3213 11.1451 13.3112 11.1427 13.3012 11.1378C14.8619 10.0134 15.8719 8.18816 15.8634 6.13363C15.8494 2.73013 13.0491 -0.0159382 9.60688 -0.00172267C6.1647 0.0124929 3.38717 2.7816 3.40123 6.1851C3.40971 8.23962 4.43481 10.0564 6.00475 11.1704C5.99472 11.1754 5.98468 11.1779 5.97465 11.1829C4.85097 11.6571 3.84371 12.3345 2.98044 13.1977C2.12142 14.0523 1.43789 15.0633 0.967588 16.1748C0.505551 17.263 0.258754 18.4287 0.240557 19.6087C0.239996 19.6352 0.244808 19.6616 0.254711 19.6862C0.264614 19.7109 0.279406 19.7333 0.298216 19.7522C0.317027 19.7711 0.339475 19.7861 0.364238 19.7963C0.389 19.8065 0.415577 19.8117 0.442401 19.8116L1.94993 19.8053C2.06048 19.8049 2.14806 19.7176 2.15013 19.6107C2.19246 17.6926 2.96393 15.8933 4.33518 14.5262C5.75397 13.1117 7.64271 12.3288 9.65777 12.3205C11.6728 12.3121 13.568 13.0794 14.9984 14.4821C16.3809 15.8379 17.1672 17.6308 17.2254 19.5485C17.2283 19.6578 17.3166 19.7419 17.4272 19.7414L18.9347 19.7352C18.9615 19.7351 18.9881 19.7297 19.0127 19.7193C19.0374 19.7089 19.0597 19.6937 19.0784 19.6747C19.097 19.6556 19.1116 19.633 19.1213 19.6083C19.131 19.5836 19.1356 19.5572 19.1349 19.5307C19.1048 18.3433 18.8513 17.1891 18.3795 16.1004ZM9.64997 10.4324C8.49672 10.4371 7.40946 9.99694 6.58955 9.19291C5.76964 8.38888 5.31547 7.31751 5.31076 6.17721C5.30605 5.03692 5.75136 3.96184 6.5646 3.15106C7.37784 2.34029 8.46142 1.89112 9.61468 1.88635C10.7679 1.88159 11.8552 2.3218 12.6751 3.12583C13.495 3.92986 13.9492 5.00122 13.9539 6.14152C13.9586 7.28182 13.5133 8.3569 12.7001 9.16767C11.8868 9.97844 10.8032 10.4276 9.64997 10.4324Z" fill="#6C757D"/>
</svg>
