<svg width="20" height="21" viewBox="0 0 20 21" fill="none" xmlns="http://www.w3.org/2000/svg">
<path d="M18.7322 5.56898L15.1671 5.5837C15.4934 5.07125 15.6842 4.46383 15.6815 3.81421C15.674 1.99671 14.1727 0.524531 12.3346 0.532122C11.3346 0.536252 10.4354 0.979419 9.82719 1.67455C9.21323 0.984467 8.31045 0.548741 7.31046 0.552871C5.47231 0.560462 3.98326 2.04499 3.99077 3.86249C3.99345 4.51211 4.18678 5.11795 4.5198 5.62767L0.954617 5.6424C0.527084 5.64416 0.183087 5.98712 0.184833 6.40985L0.204559 11.1864C0.204993 11.2915 0.292304 11.3771 0.398583 11.3767L1.36476 11.3727L1.39869 19.5885C1.40043 20.0112 1.74725 20.3513 2.17478 20.3495L17.6336 20.2857C18.0611 20.2839 18.4051 19.941 18.4034 19.5182L18.3694 11.3025L19.3356 11.2985C19.4419 11.2981 19.5285 11.2117 19.5281 11.1066L19.5083 6.33004C19.5066 5.90731 19.1598 5.56721 18.7322 5.56898ZM10.6574 3.83496C10.6536 2.91307 11.4089 2.16002 12.3413 2.15617C13.2736 2.15231 14.0352 2.89911 14.039 3.82099C14.0428 4.74287 13.2874 5.49593 12.3551 5.49978L10.6643 5.50677L10.6574 3.83496ZM7.31717 2.17691C8.24953 2.17306 9.01107 2.91986 9.01488 3.84174L9.02179 5.51355L7.33098 5.52053C6.39862 5.52438 5.63707 4.77759 5.63327 3.85571C5.62946 2.93382 6.38481 2.18076 7.31717 2.17691ZM1.84114 9.74668L1.83088 7.26285L9.02889 7.23312L9.03914 9.71695L1.84114 9.74668ZM3.00726 11.3659L9.04585 11.341L9.07623 18.697L3.03764 18.7219L3.00726 11.3659ZM16.7573 18.6652L10.7187 18.6902L10.6883 11.3342L16.7269 11.3093L16.7573 18.6652ZM17.8796 9.68044L10.6816 9.71017L10.6714 7.22634L17.8694 7.19661L17.8796 9.68044Z" fill="#6C757D"/>
</svg>
